<?xml version="1.0" standalone="no"?>
<!DOCTYPE svg PUBLIC "-//W3C//DTD SVG 20010904//EN"
 "http://www.w3.org/TR/2001/REC-SVG-20010904/DTD/svg10.dtd">
<svg version="1.0" xmlns="http://www.w3.org/2000/svg"
 width="700.000000pt" height="700.000000pt" viewBox="0 0 700.000000 700.000000"
 preserveAspectRatio="xMidYMid meet">
<metadata>
Created by potrace 1.14, written by Peter Selinger 2001-2017
</metadata>
<g transform="translate(0.000000,700.000000) scale(0.100000,-0.100000)"
fill="#000000" stroke="none">
<path d="M5605 5690 c-110 -10 -355 -151 -665 -382 -92 -69 -131 -109 -161
-168 -13 -25 -45 -66 -71 -91 -27 -26 -198 -193 -381 -372 -182 -179 -372
-364 -422 -412 -147 -142 -753 -734 -828 -809 -70 -70 -85 -74 -88 -21 -7 98
-6 139 2 199 16 114 97 286 230 482 27 40 63 103 81 139 30 64 31 67 15 100
-27 56 -58 70 -167 72 -111 3 -191 -20 -282 -80 -121 -81 -226 -236 -313 -462
-80 -210 -156 -353 -227 -428 -69 -73 -176 -127 -278 -142 -318 -47 -650 -239
-808 -468 -328 -475 -237 -1110 208 -1454 258 -199 572 -275 880 -212 135 27
326 113 447 199 116 82 225 204 280 315 48 94 123 380 123 465 0 45 34 71 168
126 221 91 366 174 421 241 90 108 105 266 33 338 -25 25 -28 26 -121 19 -165
-11 -323 27 -385 92 -44 47 -84 59 -130 40 -57 -24 -74 -93 -35 -148 33 -45
113 -104 173 -127 67 -25 192 -50 271 -55 67 -4 73 -15 27 -53 -41 -33 -184
-106 -322 -163 -118 -49 -199 -95 -228 -129 -29 -35 -62 -119 -67 -176 -9 -82
-48 -245 -80 -330 -63 -171 -224 -316 -457 -413 -370 -154 -794 -35 -1046 294
-18 23 -32 45 -32 49 0 4 -8 19 -18 33 -58 85 -107 266 -111 407 -7 300 129
569 367 728 142 95 283 154 439 183 341 63 509 225 667 644 90 236 191 392
288 441 44 22 60 19 36 -8 -26 -30 -124 -204 -166 -293 -58 -127 -82 -234 -82
-374 -1 -87 2 -109 27 -201 8 -33 17 -69 20 -80 3 -16 -32 -55 -157 -175 -88
-85 -162 -156 -164 -157 -1 -2 -31 8 -65 22 -218 89 -463 51 -641 -99 -149
-125 -224 -289 -223 -487 1 -569 704 -836 1091 -414 197 216 215 546 42 787
l-49 66 331 324 c182 178 368 359 413 403 104 102 674 658 810 790 639 621
697 681 720 731 19 42 38 62 116 120 101 76 275 196 299 207 8 4 38 21 65 37
125 76 169 93 234 96 35 2 71 -1 79 -5 25 -14 -30 -57 -106 -82 -37 -12 -87
-33 -112 -47 -99 -57 -186 -183 -204 -297 -12 -72 -67 -108 -196 -129 -48 -7
-88 -20 -100 -31 -46 -41 -29 -134 28 -156 34 -14 145 -4 209 17 75 25 118 50
167 96 49 47 73 93 81 159 11 86 75 163 162 194 191 67 276 151 275 271 -1
149 -125 224 -337 204z m-3305 -2911 c75 -15 161 -63 219 -121 205 -207 150
-558 -109 -688 -221 -111 -479 -24 -588 199 -36 74 -37 79 -37 186 0 105 2
114 34 180 93 188 281 284 481 244z"/>
<path d="M1983 2520 c-41 -24 -57 -71 -39 -113 17 -41 259 -275 292 -283 68
-17 133 43 120 110 -5 25 -33 59 -118 142 -62 60 -125 119 -140 132 -36 30
-78 35 -115 12z"/>
</g>
</svg>
